<svg id="Capa_1" data-name="Capa 1" xmlns="http://www.w3.org/2000/svg" viewBox="0 0 55.52 83.43"><title>avatar-4</title><path d="M4.78,29.67C4.9,30.82,7.45,40.75,6.59,48A139.53,139.53,0,0,1,4,62.3c16,3.33,26,1.43,41.52-1,0,0,1-4.73-.88-13.73s2.41-19.27,2.41-19.27Z" transform="translate(2 -0.79)" style="fill:#4a1f15;fill-rule:evenodd"/><path d="M35.37,5.13C66.1-.13,37,47.7,53.24,60c2.32,1.75-10.55,9.47-15.35,1.52-3-5,6.83-14.1,7.46-26.93s-3.88-17.24-6.64-22.09A31.2,31.2,0,0,1,35.37,5.13Z" transform="translate(2 -0.79)" style="fill:#4a1f15;fill-rule:evenodd"/><path d="M39.59,7c.83,7.27-1.11,8.15-7,12S24.23,23,25.18,22.48s5.46-8.32,5.46-8.32a56.35,56.35,0,0,1-12.27,7.37C12.19,24,10,23,10,23s5.46-7.13,4.75-6.57-5.94,4-6.65,5.54S5.84,30.7,6.71,38.54,15.8,61.3,11.13,64.39c-6.28,4.15-14.3-3.53-13-3.86C7.91,58.06,2.68,20.29,3,18A20,20,0,0,1,10.73,5.17C18.52-1,38.69-.86,39.59,7Z" transform="translate(2 -0.79)" style="fill:#4a1f15;fill-rule:evenodd"/><path d="M35,71.53l10.48-7.92c4.59,1.52,5.92,14.54,6.38,20.61h-11Z" transform="translate(2 -0.79)" style="fill:#df2f26;fill-rule:evenodd"/><path d="M25.57,55H20.73v3c0,1.9-.31,1.51-2.09,2.49a14.45,14.45,0,0,1-2.23,1.57c2.15,6.93,3.71,15.83,7.91,22.08h2.5C31,78,32.58,69.07,34.73,62.14a14.45,14.45,0,0,1-2.23-1.57c-1.77-1-2.09-.59-2.09-2.49V55Z" transform="translate(2 -0.79)" style="fill:#f5b77e;fill-rule:evenodd"/><path d="M16.43,71.53,6,63.61C1.36,65.13,0,78.15-.43,84.22h11Z" transform="translate(2 -0.79)" style="fill:#df2f26;fill-rule:evenodd"/><path d="M18.64,60.6C16.06,61.78,7.16,62.82,6.1,63.73,7,65.6,12.31,74.56,8.87,84.22H42.53a35.9,35.9,0,0,1,3.36-20.37c-1-.91-10.6-1.93-13.18-3.11,3.13,2.43-2.51,9.9-7.14,10.23C20.93,70.64,15.55,63,18.64,60.6Z" transform="translate(2 -0.79)" style="fill:#e63926;fill-rule:evenodd"/><path d="M11.34,31.16c.81,3.61-.79,6.61-3.52,7.26s-5.56-1.31-6.36-4.91S2.22,26.45,5,25.8,10.54,27.56,11.34,31.16Z" transform="translate(2 -0.79)" style="fill:#f6c085;fill-rule:evenodd"/><path d="M40.87,31.16c-.81,3.61.79,6.61,3.52,7.26s5.56-1.31,6.36-4.91S50,26.45,47.26,25.8,41.67,27.56,40.87,31.16Z" transform="translate(2 -0.79)" style="fill:#f6c085;fill-rule:evenodd"/><path d="M26.1,1.82H26L23.2,1.7v.23h-.3A19.53,19.53,0,0,0,8.19,10C4.7,14.77,4.24,20.75,4.51,26.47c.71,14.7,9,31.21,21.59,31.33C38.75,57.68,47,41.17,47.69,26.47,48,20.75,47.51,14.77,44,10a19.53,19.53,0,0,0-14.7-8.09H29V1.7l-2.84.12Z" transform="translate(2 -0.79)" style="fill:#f8c997;fill-rule:evenodd"/><path d="M15.82,3c.17-.59,8.21-1.72,9-1.76C29.28.92,35.14,1.84,38,3.39s6.69,5.54,7.27,7,.46,1.62-6.69,6.58-17.89,7.24-15.12,6.35,5-5.47,5-5.47-1.9,2.23-11.36,5.58-11.95,2.3-11.95,2.3a12.47,12.47,0,0,1-1.37-9.89c1.65-5.44,3-5.86,6.16-9A14.69,14.69,0,0,1,15.82,3Z" transform="translate(2 -0.79)" style="fill:#4a1f15;fill-rule:evenodd"/><path d="M35.09,7.51c-.17.81,0,5.14,5,11.77s5.37,7.22,5.37,7.22.15,12.14.21,11.62,2.66-12.58,2.66-12.58a31.27,31.27,0,0,0-.56-10.35c-1.27-5.2-2.87-7.15-5.07-8S35.09,7.51,35.09,7.51Z" transform="translate(2 -0.79)" style="fill:#4a1f15;fill-rule:evenodd"/><path d="M7.34,21.53c-.87,1-3.52,3.25-3.52,3.25L6.68,38.22Z" transform="translate(2 -0.79)" style="fill:#4a1f15;fill-rule:evenodd"/><path d="M8.24,63.08a7.32,7.32,0,0,0-2.32.77c5.24,9.95-2.5,13.94.35,20.37H45.94c2.85-6.43-4.89-10.42.35-20.37A7.42,7.42,0,0,0,44,63.08c-1.29,6.61-8.8,11.68-17.87,11.68S9.53,69.69,8.24,63.08Z" transform="translate(2 -0.79)" style="fill:#e63926;fill-rule:evenodd"/><path d="M25.57,71c-3.17-.23-6.69-3.87-7.61-6.92-.43-1.41-.3-2.69.68-3.45l-.06,0c-.2.09-.44.17-.7.26-1.23.53-3.59,1.67-4.37,2.87a1.28,1.28,0,0,0-.24.95c.37,2,3.4,2,3.4,2A7,7,0,0,0,16.73,69c.43,2.77,1.53,4.24,2.94,4.66C21.38,74.19,23.56,73.14,25.57,71Z" transform="translate(2 -0.79)" style="fill:#efefef;fill-rule:evenodd"/><path d="M25.57,71c3.18-.23,6.69-3.87,7.61-6.92.43-1.41.3-2.72-.68-3.48a7.35,7.35,0,0,0,.77.32c1.23.53,3.59,1.67,4.37,2.87a1.33,1.33,0,0,1,.24.95c-.38,2-3.41,2-3.41,2A6.65,6.65,0,0,1,34.41,69c-.43,2.77-1.53,4.24-2.94,4.66C29.76,74.19,27.58,73.14,25.57,71Z" transform="translate(2 -0.79)" style="fill:#efefef;fill-rule:evenodd"/><path d="M25,32.41a3.2,3.2,0,0,1,1.14-.15,3.23,3.23,0,0,1,1.15.15,1.34,1.34,0,0,1,.83,1c.16.6.31,1.2.48,1.79a14.22,14.22,0,0,0,1.4,3.4c1,1.67,2.68,1.9,4.18,2.09a21,21,0,0,0,8.28-.29A4.93,4.93,0,0,0,43.6,40a3,3,0,0,0,1.31-1.51,21.89,21.89,0,0,0,.81-2.32l.51-1.71a3,3,0,0,1,.48-1,9.6,9.6,0,0,0,.5-.83,1.51,1.51,0,0,0,.16-.63c0-.79.08-1.61.09-2.4,0-2.12-9.69-1.75-10.82-1.7-.52,0-1,.05-1.54.1a25,25,0,0,0-5.36.93,13.46,13.46,0,0,1-3.64.84,13.39,13.39,0,0,1-3.63-.84A25,25,0,0,0,17.11,28c-.51-.05-1-.08-1.54-.1-1.13-.05-10.86-.42-10.82,1.7,0,.79,0,1.61.09,2.4a1.51,1.51,0,0,0,.16.63,9.54,9.54,0,0,0,.49.83,2.86,2.86,0,0,1,.49,1l.51,1.71a21.89,21.89,0,0,0,.81,2.32A3,3,0,0,0,8.61,40a4.77,4.77,0,0,0,1.18.47,21,21,0,0,0,8.28.29c1.5-.19,3.16-.42,4.18-2.09a14.64,14.64,0,0,0,1.4-3.4c.17-.59.32-1.19.48-1.79a1.33,1.33,0,0,1,.83-1ZM29.19,31h0A1.7,1.7,0,0,1,30,30a14.05,14.05,0,0,1,4.72-1.17,40.57,40.57,0,0,1,7.87-.05,5.67,5.67,0,0,1,2.44.74,1.8,1.8,0,0,1,.54,1.35,20.47,20.47,0,0,1-.46,4.48A11,11,0,0,1,44,38.62a2.8,2.8,0,0,1-1.37,1.07,6.82,6.82,0,0,1-.88.26,17.78,17.78,0,0,1-7.44.15c-.57-.09-1.14-.22-1.7-.35a3,3,0,0,1-2.09-1.54A13.09,13.09,0,0,1,29.2,34,10.4,10.4,0,0,1,29.05,32a3.72,3.72,0,0,1,.14-1ZM23,31h0a3.72,3.72,0,0,1,.14,1A11.33,11.33,0,0,1,23,34a13.09,13.09,0,0,1-1.33,4.26,3,3,0,0,1-2.09,1.54c-.57.13-1.13.26-1.7.35A17.78,17.78,0,0,1,10.45,40a6.82,6.82,0,0,1-.88-.26A2.8,2.8,0,0,1,8.2,38.62a11,11,0,0,1-1.13-3.28,20.47,20.47,0,0,1-.46-4.48,1.8,1.8,0,0,1,.54-1.35,5.67,5.67,0,0,1,2.44-.74,40.58,40.58,0,0,1,7.87.05A13.94,13.94,0,0,1,22.17,30,1.68,1.68,0,0,1,23,31Z" transform="translate(2 -0.79)" style="fill:#3f3b3a;fill-rule:evenodd"/><path d="M9.34,27.42c-1,.41.66-2.28,5.53-2.38,5.68-.13,7.41,2.6,5.17,1.82A15,15,0,0,0,9.34,27.42Z" transform="translate(2 -0.79)" style="fill:#4a1f15;fill-rule:evenodd"/><path d="M15.1,34.52a1.68,1.68,0,0,0,0-3.35,1.68,1.68,0,1,0,0,3.35Z" transform="translate(2 -0.79)" style="fill:#3f3b3a;fill-rule:evenodd"/><path d="M37.11,34.52a1.68,1.68,0,1,0-1.67-1.67A1.67,1.67,0,0,0,37.11,34.52Z" transform="translate(2 -0.79)" style="fill:#3f3b3a;fill-rule:evenodd"/><path d="M43.85,27.42c1,.41-.66-2.28-5.53-2.38-5.68-.13-7.41,2.6-5.17,1.82A15.06,15.06,0,0,1,43.85,27.42Z" transform="translate(2 -0.79)" style="fill:#4a1f15;fill-rule:evenodd"/><path d="M30.8,47.43a4.46,4.46,0,0,1,.11,1,4.34,4.34,0,1,1-8.67,0,4.46,4.46,0,0,1,.11-1Z" transform="translate(2 -0.79)" style="fill:#d7835c;fill-rule:evenodd"/><path d="M23,43.22s0,0,0,0a.32.32,0,0,1,.14-.24,35.81,35.81,0,0,0,2.66-9.43c.68,0-.67,7.22-1.26,8.94a12.79,12.79,0,0,1,2.09-.16c2,0,3.62.4,3.62.89s-1.63.9-3.62.9S23.07,43.69,23,43.22Z" transform="translate(2 -0.79)" style="fill:#e5b27e;fill-rule:evenodd"/></svg>