<svg id="Capa_1" data-name="Capa 1" xmlns="http://www.w3.org/2000/svg" viewBox="0 0 55.01 86.28"><title>avatar-6</title><path d="M16.61,73.22C16.15,72.87,5.84,68,5.84,68,1.25,69.53.22,79.84-.25,85.91h11Z" transform="translate(3.25 0.36)" style="fill:#e7a224;fill-rule:evenodd"/><path d="M34.89,73.22c.46-.35,10.77-5.2,10.77-5.2,4.59,1.51,5.62,11.82,6.09,17.89h-11Z" transform="translate(3.25 0.36)" style="fill:#e7a224;fill-rule:evenodd"/><path d="M25.75,56.72H20.91v3.05c0,1.9-.31,1.51-2.09,2.5a15.17,15.17,0,0,1-2.23,1.57c2.15,6.92,3.71,15.83,7.91,22.07H27c4.2-6.24,5.76-15.15,7.91-22.07a15.17,15.17,0,0,1-2.23-1.57c-1.78-1-2.09-.6-2.09-2.5V56.72Z" transform="translate(3.25 0.36)" style="fill:#f5b77e;fill-rule:evenodd"/><path d="M18.82,62.29c-2.58,1.18-12,4.86-13,5.78.85,1.87,2.15,9.57,3.27,17.84h33.4c1.12-8.27,2.42-16,3.27-17.84-1-.92-10.46-4.6-13-5.78C34.3,72.64,16.91,71.37,18.82,62.29Z" transform="translate(3.25 0.36)" style="fill:#f3ab1e;fill-rule:evenodd"/><path d="M38.7,34a6.1,6.1,0,0,0,5.22,7.26c3.57.65,7-1.31,7.72-4.91a6.54,6.54,0,0,0-5.21-7.71A6.7,6.7,0,0,0,38.7,34Z" transform="translate(3.25 0.36)" style="fill:#f6c085;fill-rule:evenodd"/><path d="M13.77,34a6.1,6.1,0,0,1-5.22,7.26c-3.57.65-7-1.31-7.72-4.91A6.54,6.54,0,0,1,6,28.63,6.71,6.71,0,0,1,13.77,34Z" transform="translate(3.25 0.36)" style="fill:#f6c085;fill-rule:evenodd"/><path d="M44.07,11.72A19.53,19.53,0,0,0,29.36,3.63h-.3V3.4l-2.85.11L23.37,3.4v.22h-.3A19.53,19.53,0,0,0,8.37,11.72C4.88,16.46,4.42,22.44,4.69,28.16c.71,14.7,2,31.17,21.59,31.34S47,42.76,47.75,28.16C48,22.44,47.56,16.46,44.07,11.72Z" transform="translate(3.25 0.36)" style="fill:#f8c997;fill-rule:evenodd"/><path d="M30.29,44.67a4.6,4.6,0,0,1,.11,1,4.33,4.33,0,1,1-8.66,0,4.59,4.59,0,0,1,.1-1Z" transform="translate(3.25 0.36)" style="fill:#d7835c;fill-rule:evenodd"/><path d="M5.77,32.61c.26-5.42.33-15.22,5.08-15.22.12,0,14.41-5.92,30.87-5.92,3.79,0,4.73,10.76,4.8,17.84,0,1.46.12,2.92.2,4.37.05.86.11,1.71.15,2.56,0,.35.11,1.28.56,1.19s.56-2,.61-2.37a68.26,68.26,0,0,0,.46-8.57c0-3.88-.1-9.9-3.48-15.59-1.19-2-2-4.42-4.43-6.06-5.8-3.88-17.48-2.18-24.15,0-4.64,1.53-9.38,3.43-11,8.07C3.58,18,3.63,22,4.23,32.07c.06,1.09.19,2.19.34,3.27a20.07,20.07,0,0,0,.37,2.17c.38,1.54.9.44.89-.52C5.8,35.53,5.7,34.08,5.77,32.61Z" transform="translate(3.25 0.36)" style="fill:#a84125;fill-rule:evenodd"/><path d="M43.09,6.72C42.46-7.78,14.35,4.36,10.76,5,1.83,6.65-1.82.9-1.82.9c-5.73,16.36,6,30,31.87,12.89,4.76-3.15,10.41-1.09,10.41-1.09,4.6,6,6.58,7,7.52,15.26,0,0,.69-5.76,1.89-11.76C51.12,9.94,48.3,6,43.09,6.72Z" transform="translate(3.25 0.36)" style="fill:#a84125;fill-rule:evenodd"/><path d="M4.94,37.51c0,.63,2.58,12.87,4.35,15.18s7.77,5.77,8.78,6c.79.18,6,1.05,8.23,1.4,2.18-.35,7.44-1.22,8.23-1.4,1-.23,7.12-4,8.78-6s5.18-16.85,4.23-15.9C44,43.94,43.42,54.25,29,54.25c-.71,0-2.13-1.11-2.7-1.58-.58.47-2,1.58-2.71,1.58C9.17,54.25,8.52,44.66,4.94,37.51Z" transform="translate(3.25 0.36)" style="fill:#a84125;fill-rule:evenodd"/><path d="M13.51,46c4,2.23,11.91.55,12.68-1,.78,1.53,8.67,3.21,12.68,1-6.31-1.26-9.52-4.15-12.68-3.17C23,41.88,19.83,44.77,13.51,46Z" transform="translate(3.25 0.36)" style="fill:#a84125;fill-rule:evenodd"/><path d="M11.29,65.52c.11.4.84,20.39.84,20.39h4L14.68,64Z" transform="translate(3.25 0.36)" style="fill:#ee8424;fill-rule:evenodd"/><path d="M40.37,65.52c-.12.4-.84,20.39-.84,20.39h-4L37,64Z" transform="translate(3.25 0.36)" style="fill:#ee8424;fill-rule:evenodd"/><path d="M15.29,37a1.68,1.68,0,1,0-1.68-1.67A1.67,1.67,0,0,0,15.29,37Z" transform="translate(3.25 0.36)" style="fill:#3f3b3a;fill-rule:evenodd"/><path d="M37.16,37a1.68,1.68,0,1,0-1.68-1.67A1.67,1.67,0,0,0,37.16,37Z" transform="translate(3.25 0.36)" style="fill:#3f3b3a;fill-rule:evenodd"/><path d="M10,30.16c-.54-.92,2.36-1.36,5.3-1.34,4.93,0,7.57,2.45,5.2,2.34C18.7,31.09,10.13,30.43,10,30.16Z" transform="translate(3.25 0.36)" style="fill:#ee7f24;fill-rule:evenodd"/><path d="M42.47,30.37c.56-.91-2.33-1.41-5.27-1.44-4.93-.07-7.62,2.29-5.25,2.24C33.72,31.12,42.3,30.64,42.47,30.37Z" transform="translate(3.25 0.36)" style="fill:#ee7f24;fill-rule:evenodd"/><path d="M22.63,41.72s0,0,0,0a.36.36,0,0,1,.13-.25A35.58,35.58,0,0,0,25.42,32c.68,0-.67,7.22-1.25,8.94a11.58,11.58,0,0,1,2.08-.17c2,0,3.62.4,3.62.9s-1.62.89-3.62.89S22.74,42.19,22.63,41.72Z" transform="translate(3.25 0.36)" style="fill:#e5b27e;fill-rule:evenodd"/></svg>