<svg id="Capa_1" data-name="Capa 1" xmlns="http://www.w3.org/2000/svg" viewBox="0 0 52 83.63"><title>avatar-3</title><polygon points="19.43 61.5 19.29 56.91 33.77 56.91 33.63 61.35 19.43 61.5" style="fill:#1c8ec2;fill-rule:evenodd"/><path d="M17.27,71.53c-.46-.35-10.77-5.2-10.77-5.2C1.91,67.84.88,78.15.41,84.22h11Z" transform="translate(-0.41 -0.59)" style="fill:#0695d4;fill-rule:evenodd"/><path d="M35.55,71.53c.46-.35,10.77-5.2,10.77-5.2,4.59,1.51,5.62,11.82,6.09,17.89h-11Z" transform="translate(-0.41 -0.59)" style="fill:#0695d4;fill-rule:evenodd"/><path d="M26.41,55H21.57v3c0,1.9-.31,1.51-2.09,2.49a14.45,14.45,0,0,1-2.23,1.57c2.15,6.93,3.88,14.16,8.08,20.41h2.5C32,76.3,33.42,69.07,35.57,62.14a14.45,14.45,0,0,1-2.23-1.57c-1.78-1-2.09-.59-2.09-2.49V55Z" transform="translate(-0.41 -0.59)" style="fill:#f5b77e;fill-rule:evenodd"/><path d="M26.84,71.84s-1.51-2-2.2-3.12c-2.11-3.41-5.09-8.08-5.16-8.12-2.58,1.18-12,4.86-13,5.77C7.29,68.25,8.59,76,9.71,84.22h33.4c1.12-8.27,2.42-16,3.27-17.85-1.05-.91-10.46-4.59-13-5.77a58.15,58.15,0,0,1-4.1,8.12C28.34,70.08,26.84,71.84,26.84,71.84Z" transform="translate(-0.41 -0.59)" style="fill:#0f8bcc;fill-rule:evenodd"/><path d="M21.89,64.78c.26,0,1.72.23,1.72.23l1,3.71L21,67Z" transform="translate(-0.41 -0.59)" style="fill:#077bb5;fill-rule:evenodd"/><path d="M19.7,57.51,23.61,65s-4,3.95-4,3.78-1.8-7.17-1.66-7.54S19.7,57.51,19.7,57.51Z" transform="translate(-0.41 -0.59)" style="fill:#31a5dd;fill-rule:evenodd"/><path d="M32,64.78c-.26,0-1.72.23-1.72.23l-1,3.71L32.91,67Z" transform="translate(-0.41 -0.59)" style="fill:#077bb5;fill-rule:evenodd"/><path d="M34.17,57.5,30.26,65s4,3.95,4,3.78S36,61.62,35.9,61.25,34.17,57.5,34.17,57.5Z" transform="translate(-0.41 -0.59)" style="fill:#31a5dd;fill-rule:evenodd"/><path d="M38.89,32.76A6.1,6.1,0,0,0,44.11,40c3.57.65,7-1.3,7.72-4.91a6.52,6.52,0,0,0-5.22-7.7A6.69,6.69,0,0,0,38.89,32.76Z" transform="translate(-0.41 -0.59)" style="fill:#f6c085;fill-rule:evenodd"/><path d="M14,32.76A6.1,6.1,0,0,1,8.74,40c-3.57.65-7-1.3-7.72-4.91a6.51,6.51,0,0,1,5.21-7.7A6.7,6.7,0,0,1,14,32.76Z" transform="translate(-0.41 -0.59)" style="fill:#f6c085;fill-rule:evenodd"/><path d="M44.26,9.86A19.52,19.52,0,0,0,29.55,1.78h-.3V1.54l-2.85.12-2.85-.12v.23h-.3A19.52,19.52,0,0,0,8.56,9.86C5.07,14.61,4.61,20.58,4.88,26.31c.71,14.7,2,31.17,21.59,31.33S47.23,40.91,47.94,26.31C48.21,20.58,47.75,14.61,44.26,9.86Z" transform="translate(-0.41 -0.59)" style="fill:#f8c997;fill-rule:evenodd"/><path d="M7,31c.26-5.42.33-15.22,5.08-15.22C12.21,15.82,26.5,9.9,43,9.9c3.79,0,4.73,10.76,4.8,17.84.06,6.1-1.08,8.91-.64,9.1s2.63-3.32,2.62-11.92c0-3.88-.1-9.9-3.48-15.59-1.19-2-2-4.42-4.43-6.06C36-.61,23.66.28,17,2.47-1.45,8.54,5.11,36.76,5.71,36.71S7,31.79,7,31Z" transform="translate(-0.41 -0.59)" style="fill:#bf9240;fill-rule:evenodd"/><path d="M28.71,6.74c2.3-.12,13.6,2.92,13.6,2.92-8.43,8.38-22.13,14-34,11.79,0,0,5.42-3.46,5-3.11a20.38,20.38,0,0,1-6.64,1.15c-1.59-.2-1.51-.78-1.51-.78C14.39,10.19,14.15,10.27,28.71,6.74Z" transform="translate(-0.41 -0.59)" style="fill:#bf9240;fill-rule:evenodd"/><path d="M23.86,28.9a3.86,3.86,0,0,0-1.56-1.18c-3.92-1.41-14.75-.83-17.64-.11-.37.09-.41.08-.45.33a8.08,8.08,0,0,0,.07,2c.12.22.69.31,1.19,1.06.91,1.33.84,6.16,3,8.45s10.7,2.46,13-.7a25.53,25.53,0,0,0,3.08-6.64,1.94,1.94,0,0,1,1.3-.6,4.08,4.08,0,0,1,1.14,0,2,2,0,0,1,1.3.6,25.82,25.82,0,0,0,3.07,6.64c2.3,3.16,10.76,3.07,13,.7s2.09-7.12,3-8.45c.5-.75,1.07-.84,1.19-1.06a8.08,8.08,0,0,0,.07-2c0-.25-.08-.24-.45-.33-2.89-.72-13.72-1.3-17.64.11A4,4,0,0,0,29,28.9a7.92,7.92,0,0,1-2.54.15,8,8,0,0,1-2.55-.15Zm20.36-.52h0a1.79,1.79,0,0,1,1.42,1.17,11.83,11.83,0,0,1,0,4.78,11,11,0,0,1-1.51,4.08c-2.34,2.91-10.08,2.56-12,.05-1.49-1.93-4-7.66-.92-9.3,2.66-1.4,10.3-1.68,13-.78Zm-35.62,0h0c2.71-.9,10.35-.62,13,.78,3.1,1.64.56,7.37-.92,9.3-1.93,2.51-9.67,2.86-12-.05a10.62,10.62,0,0,1-1.51-4.08,11.83,11.83,0,0,1,0-4.78A1.79,1.79,0,0,1,8.6,28.38Z" transform="translate(-0.41 -0.59)" style="fill:#3f3b3a;fill-rule:evenodd"/><path d="M15.47,35.7A1.68,1.68,0,1,0,13.8,34,1.68,1.68,0,0,0,15.47,35.7Z" transform="translate(-0.41 -0.59)" style="fill:#3f3b3a;fill-rule:evenodd"/><path d="M37.34,35.7A1.68,1.68,0,1,0,35.67,34,1.68,1.68,0,0,0,37.34,35.7Z" transform="translate(-0.41 -0.59)" style="fill:#3f3b3a;fill-rule:evenodd"/><path d="M34.46,46.26a9.62,9.62,0,0,1-7.59,3.29,9.62,9.62,0,0,1-7.59-3.29A13,13,0,0,0,26.78,49,13.58,13.58,0,0,0,34.46,46.26Z" transform="translate(-0.41 -0.59)" style="fill:#d7835c;fill-rule:evenodd"/><path d="M23,44s0,0,0,0a.34.34,0,0,1,.14-.25,35.58,35.58,0,0,0,2.66-9.42c.68,0-.68,7.22-1.26,8.94A11.66,11.66,0,0,1,26.65,43c2,0,3.62.4,3.62.9s-1.62.89-3.62.89S23.14,44.45,23,44Z" transform="translate(-0.41 -0.59)" style="fill:#e5b27e;fill-rule:evenodd"/><path d="M9.56,25.48c-.54-.93,2.36-1.37,5.3-1.35,4.93,0,7.57,2.45,5.2,2.35C18.29,26.4,9.72,25.75,9.56,25.48Z" transform="translate(-0.41 -0.59)" style="fill:#bf9240;fill-rule:evenodd"/><path d="M43.09,25.36c.54-.93-2.36-1.36-5.3-1.34-4.93,0-7.57,2.44-5.2,2.34C34.36,26.28,42.93,25.63,43.09,25.36Z" transform="translate(-0.41 -0.59)" style="fill:#bf9240;fill-rule:evenodd"/></svg>