<svg id="Capa_1" data-name="Capa 1" xmlns="http://www.w3.org/2000/svg" viewBox="0 0 52.26 84.99"><title>avatar-5</title><path d="M8.23,10.64A105.56,105.56,0,0,0,3.37,21.31C2.64,23.2,2.34,36,9.79,46.37s23.76,9.18,24.06,9.76c.75,1.46,1.51,0,3,1.57a33.63,33.63,0,0,0,9-16.54C48,30.84,45.15,23.5,45.15,23.5Z" transform="translate(0.39 0.15)" style="fill:#62391b;fill-rule:evenodd"/><path d="M34,55.59a3.4,3.4,0,0,0-1.17,3c.34,1,4.6,2.17,5.16,1.66C41.56,57,35.72,55,34,55.59Z" transform="translate(0.39 0.15)" style="fill:#ef9095;fill-rule:evenodd"/><path d="M35,72.14l10.48-7.91c4.59,1.51,5.91,14.53,6.38,20.61h-11Z" transform="translate(0.39 0.15)" style="fill:#f5b77e;fill-rule:evenodd"/><path d="M25.61,55.64H20.77V58.7c0,3.62-9.63,3.95-12.9,5C9.06,70.07,7,72.87,24.7,83.55h2.5c8.57-3.12,15.09-6.94,16.73-19.78-3.36-1.07-13.49-1.39-13.48-5.07V55.64Z" transform="translate(0.39 0.15)" style="fill:#f5b77e;fill-rule:evenodd"/><path d="M13.12,74.29C12.66,73.94,6,64.23,6,64.23,1.4,65.74.07,78.76-.39,84.84h11Z" transform="translate(0.39 0.15)" style="fill:#f5b77e;fill-rule:evenodd"/><path d="M7.88,63.69h0l0,0H7.71l0,0H7.55l-.1,0H7.29l0,0H7.1l0,0H7l-.13,0H6.69l0,0H6.53l0,0H6.41l-.07,0h0l-.1,0h0l-.06,0H6l-.08,0h0l-.08,0h0l-.08,0h0l-.07,0h0l-.06,0h0l0,0a54.17,54.17,0,0,1,1.72,8.74c-.65,4.36-3.2,7.49-1.36,11.63H45.57c1.84-4.14-.72-7.27-1.37-11.63a55.36,55.36,0,0,1,1.72-8.74.1.1,0,0,0-.05,0h0l-.06,0h0l-.06,0h0a.2.2,0,0,1-.08,0h0l-.09,0h0l-.08,0h-.06l-.07,0h0l-.11,0h0l-.08,0H45l0,0h-.13l0,0h-.19l-.12,0h0l-.05,0h-.14l0,0H44l-.1,0h-.11l0,0h-.11l-.06,0h0a18.59,18.59,0,0,1-35.72,0Z" transform="translate(0.39 0.15)" style="fill:#7d5f65;fill-rule:evenodd"/><path d="M11.38,31.78c.8,3.61-.79,6.61-3.53,7.26s-5.56-1.31-6.36-4.92.76-7,3.49-7.7S10.58,28.17,11.38,31.78Z" transform="translate(0.39 0.15)" style="fill:#f6c085;fill-rule:evenodd"/><path d="M40.9,31.78c-.8,3.61.79,6.61,3.52,7.26s5.56-1.31,6.37-4.92-.76-7-3.49-7.7S41.7,28.17,40.9,31.78Z" transform="translate(0.39 0.15)" style="fill:#f6c085;fill-rule:evenodd"/><path d="M26.14,2.43h-.06l-2.85-.11v.23h-.3A19.52,19.52,0,0,0,8.23,10.64c-3.49,4.75-4,10.72-3.68,16.44.71,14.71,8.94,31.22,21.59,31.34C38.78,58.3,47,41.79,47.73,27.08c.27-5.72-.19-11.69-3.68-16.44A19.52,19.52,0,0,0,29.34,2.56H29V2.32l-2.85.11Z" transform="translate(0.39 0.15)" style="fill:#f8c997;fill-rule:evenodd"/><path d="M35.13,8.13c-.18.81,0,5.13,5,11.77s5.37,7.21,5.37,7.21.23,11.2.86,9.87,1.54-11,1.54-11a24.64,24.64,0,0,0-.1-10.21c-1.27-5.19-2.87-7.15-5.07-8S35.13,8.13,35.13,8.13Z" transform="translate(0.39 0.15)" style="fill:#62391b;fill-rule:evenodd"/><path d="M7.37,22.15c-.87,1-3.68,1.09-3.68,1.09.12.9,1.34,14.57,2.47,13.6Z" transform="translate(0.39 0.15)" style="fill:#62391b;fill-rule:evenodd"/><path d="M45.46,27.11c.22-3.79,2.17-12.45,1.21-14.81C43.92,5.49,38.89,2.73,30.44,1.88a26.35,26.35,0,0,0-4.76,0C30.53,9.86,34.62,20.5,45.46,27.11Z" transform="translate(0.39 0.15)" style="fill:#62391b;fill-rule:evenodd"/><path d="M37.3,10.19C35.59,20.88,13,17.43,5.61,30.29-2.66,17.79,10-7.82,32.05,2.08Z" transform="translate(0.39 0.15)" style="fill:#62391b;fill-rule:evenodd"/><path d="M17.2,36.3a1.67,1.67,0,1,0-1.67-1.67A1.68,1.68,0,0,0,17.2,36.3Z" transform="translate(0.39 0.15)" style="fill:#3f3b3a;fill-rule:evenodd"/><path d="M36.07,36.3a1.67,1.67,0,1,0-1.67-1.67A1.68,1.68,0,0,0,36.07,36.3Z" transform="translate(0.39 0.15)" style="fill:#3f3b3a;fill-rule:evenodd"/><path d="M23.44,43.17s0,0,0-.06a.34.34,0,0,1,.14-.24,36,36,0,0,0,2.66-9.43c.67,0-.68,7.23-1.26,8.94a12.75,12.75,0,0,1,2.08-.16c2,0,3.62.4,3.62.89s-1.62.9-3.62.9S23.54,43.64,23.44,43.17Z" transform="translate(0.39 0.15)" style="fill:#e5b27e;fill-rule:evenodd"/><path d="M30.58,30.6c-1,.41.66-2.28,5.53-2.38,5.68-.13,7.41,2.6,5.17,1.82A15,15,0,0,0,30.58,30.6Z" transform="translate(0.39 0.15)" style="fill:#402515;fill-rule:evenodd"/><path d="M22.7,30.6c1,.41-.66-2.28-5.53-2.38C11.49,28.09,9.76,30.82,12,30A15.06,15.06,0,0,1,22.7,30.6Z" transform="translate(0.39 0.15)" style="fill:#402515;fill-rule:evenodd"/><path d="M32.42,48c-1.1,3.53-11.09,3.53-12.19,0A10.77,10.77,0,0,0,32.42,48Z" transform="translate(0.39 0.15)" style="fill:#d7835c;fill-rule:evenodd"/><path d="M28.93,65.69c-2.59,6.56-.64,8.62-.64,8.62l.3-3.69a57.5,57.5,0,0,1,1,7.46,27,27,0,0,1-1,6.76s4.62-2.52,6.9-6.46S37,67,37,67a19.24,19.24,0,0,0,.94,2.23,36.66,36.66,0,0,0,.3-6.3c-.11-1.28.14-2.85-.68-4C33.69,53.37,29.85,63.38,28.93,65.69Z" transform="translate(0.39 0.15)" style="fill:#62391b;fill-rule:evenodd"/></svg>