<svg id="Capa_1" data-name="Capa 1" xmlns="http://www.w3.org/2000/svg" viewBox="0 0 53.38 85.91"><title>Sin título-2</title><path d="M47.61,42.6c-.23,2.43-8.78,20.5-8.78,20.5l-20.45-.42S5.6,53.34,4.68,46.41A71.4,71.4,0,0,1,4.28,33L47.34,32Z" transform="translate(1.43 0.69)" style="fill:#963e23;stroke:#241916;stroke-miterlimit:22.925600000000003;stroke-width:0.5669000000000001px;fill-rule:evenodd"/><path d="M38.93,77.09c.46-.35,6.61-12.48,6.61-12.48,4.59,1.52,5.92,14.54,6.39,20.61H41Z" transform="translate(1.43 0.69)" style="fill:#ceacca;fill-rule:evenodd"/><path d="M25.66,56H20.82v3c0,3.63-9.63,4-12.89,5,.88,7.56,7.89,13.11,18.21,20.16h2.5c4.21-6.25,14.77-10.06,15-20.16-3.31-1.06-13.16-1.33-13.16-5V56Z" transform="translate(1.43 0.69)" style="fill:#f6c085;fill-rule:evenodd"/><path d="M13,75.7c-.46-.34-7-11.09-7-11.09C1.45,66.13.13,79.15-.34,85.22h11Z" transform="translate(1.43 0.69)" style="fill:#ceacca;fill-rule:evenodd"/><path d="M7.93,64.08a7.22,7.22,0,0,0-2.32.77c5.24,10-2.5,13.94.35,20.37H45.63c2.85-6.43-4.89-10.42.35-20.37a7.42,7.42,0,0,0-2.32-.77c-1.29,6.61-8.8,11.68-17.87,11.68S9.22,70.69,7.93,64.08Z" transform="translate(1.43 0.69)" style="fill:#d8b3d2;fill-rule:evenodd"/><path d="M26.2,2.82h-.07L23.29,2.7v.23H23A19.53,19.53,0,0,0,8.29,11c-3.5,4.74-4,10.72-3.69,16.44.71,14.7,9,31.21,21.6,31.34,12.64-.13,20.88-16.64,21.59-31.34.27-5.72-.19-11.7-3.69-16.44A19.51,19.51,0,0,0,29.4,2.94h-.3V2.7l-2.84.12Z" transform="translate(1.43 0.69)" style="fill:#f8c997;fill-rule:evenodd"/><path d="M41.28,29.8c1,.41-.66-2.27-5.53-2.38-5.68-.12-7.41,2.61-5.17,1.83A15,15,0,0,1,41.28,29.8Z" transform="translate(1.43 0.69)" style="fill:#cc5827;fill-rule:evenodd"/><path d="M16.81,35.09a1.67,1.67,0,1,0-1.67-1.67A1.68,1.68,0,0,0,16.81,35.09Z" transform="translate(1.43 0.69)" style="fill:#3f3b3a;fill-rule:evenodd"/><circle cx="37.12" cy="34.11" r="1.67" style="fill:#3f3b3a"/><path d="M19.6,47a13.37,13.37,0,0,0,12.87,0C31.46,53.49,20.7,53.29,19.6,47Z" transform="translate(1.43 0.69)" style="fill:#d7835c;fill-rule:evenodd"/><path d="M22.42,43.43s0,0,0,0a.31.31,0,0,1,.14-.24,35.81,35.81,0,0,0,2.66-9.43c.68,0-.68,7.22-1.26,8.94A11.66,11.66,0,0,1,26,42.48c2,0,3.62.41,3.62.9s-1.62.89-3.62.89S22.52,43.9,22.42,43.43Z" transform="translate(1.43 0.69)" style="fill:#e5b27e;fill-rule:evenodd"/><path d="M10.82,29.85c-1,.41.66-2.28,5.53-2.38,5.68-.13,7.41,2.6,5.17,1.82A15.06,15.06,0,0,0,10.82,29.85Z" transform="translate(1.43 0.69)" style="fill:#cc5827;fill-rule:evenodd"/><path d="M10.84,8.16c7.89,4.66,31.77,12.46,31.07,35.67,0,0,1.67-9.3,1.73-8.86a40,40,0,0,1-.52,14.67c-1.73,8.5-8.77,18.43-8.48,18a31.13,31.13,0,0,0,12-13.93C59.21,24.93,49.2-6.13,19.33.12,12.92,1.46,8,6.48,10.84,8.16Z" transform="translate(1.43 0.69)" style="fill:#cc5827;fill-rule:evenodd"/><path d="M19.6,11C3,19.72,9.68,49.94,16.28,60.09c3.15,4.85,6.38,8,5.25,7s-9.3-.32-18-16.82C-3.53,37-5.85,3.72,16,3.72Z" transform="translate(1.43 0.69)" style="fill:#cc5827;fill-rule:evenodd"/><path d="M4,20.45c.92-.8,5.43-6.17,5.43-6.17-4.33,18.17,3.66,33.41,3.63,33.35C6.39,36.17,5.44,33.53,4,20.45Z" transform="translate(1.43 0.69)" style="fill:#cc5827;fill-rule:evenodd"/></svg>